<svg width="138" height="35" viewBox="0 0 138 35" fill="none" xmlns="http://www.w3.org/2000/svg">
<path d="M2.35 0.199998V23.75L25.95 0.199998H28.55L14 14.7L28.5 35H26.3L12.7 16L2.35 26.35V35H0.5V0.199998H2.35ZM49.5617 0.199998H51.5117L65.8117 35H63.8117L59.1117 23.5H41.9617L37.2117 35H35.2617L49.5617 0.199998ZM42.7117 21.7H58.3617L50.5117 2.6L42.7117 21.7ZM73.9234 35V0.199998H75.8734L100.173 23.8V0.199998H102.023V35H100.173V26.4L75.7734 2.6V35H73.9234ZM137.485 0.199998L137.435 2.05L113.935 33.15H137.485V35H111.635V33.15L135.085 2.05H112.185V0.199998H137.485Z" fill="#DA5B6E"/>
</svg>
